<?xml version="1.0" standalone="no"?>
<!DOCTYPE svg PUBLIC "-//W3C//DTD SVG 20010904//EN"
 "http://www.w3.org/TR/2001/REC-SVG-20010904/DTD/svg10.dtd">
<svg version="1.0" xmlns="http://www.w3.org/2000/svg"
 width="188.000000pt" height="188.000000pt" viewBox="0 0 188.000000 188.000000"
 preserveAspectRatio="xMidYMid meet">
<metadata>
Created by potrace 1.11, written by Peter Selinger 2001-2013
</metadata>
<g transform="translate(0.000000,188.000000) scale(0.100000,-0.100000)"
fill="#000000" stroke="none">
<path d="M1198 1781 c-19 -15 -25 -29 -24 -51 1 -16 5 -33 9 -36 19 -19 -145
-187 -200 -205 -75 -24 -171 10 -244 88 -66 70 -89 106 -78 126 16 27 -10 70
-49 81 -28 8 -36 6 -57 -14 -28 -26 -30 -40 -14 -85 10 -28 7 -40 -32 -119
-23 -48 -55 -101 -69 -116 -52 -55 -180 -64 -262 -18 -31 18 -38 26 -35 47 7
51 -20 80 -75 81 -23 0 -58 -39 -58 -64 1 -27 30 -63 55 -68 19 -3 34 -56 59
-203 3 -16 14 -66 25 -110 10 -44 22 -123 25 -175 4 -52 9 -114 11 -137 2 -30
-1 -43 -9 -43 -19 0 -46 -34 -46 -56 0 -11 -5 -25 -10 -30 -17 -17 -20 -136
-4 -162 8 -12 12 -26 10 -31 -3 -5 9 -25 27 -44 17 -20 41 -48 52 -63 35 -46
55 -64 70 -64 8 0 15 -4 15 -10 0 -11 30 -29 57 -33 10 -1 31 -15 46 -29 24
-23 33 -25 59 -17 19 5 36 5 43 -1 6 -5 29 -12 51 -16 21 -3 41 -10 44 -15 14
-22 95 -67 114 -62 60 13 93 11 134 -8 24 -12 68 -23 98 -25 45 -2 58 1 83 22
28 23 61 31 75 17 14 -15 49 -12 71 5 14 11 42 19 70 20 26 1 55 7 65 12 10 6
28 10 39 10 18 0 69 24 156 75 22 13 50 24 62 24 13 1 32 14 45 31 12 16 28
30 35 30 16 0 37 32 54 85 8 22 22 48 32 57 9 10 17 26 17 36 0 10 5 23 12 30
6 6 13 38 15 72 4 60 4 60 -31 81 -20 12 -34 24 -32 27 2 4 6 57 10 117 8 138
15 205 21 227 3 9 8 25 10 35 2 10 15 68 30 128 22 94 33 162 39 225 0 8 13
27 29 42 31 31 34 57 10 86 -51 59 -138 9 -112 -64 6 -17 -1 -26 -39 -51 -108
-70 -211 -76 -282 -16 -59 49 -150 204 -132 226 51 65 -25 148 -90 98z"/>
</g>
</svg>
